<?xml version="1.0" encoding="utf-8"?>
<!-- Generator: Adobe Illustrator 21.0.0, SVG Export Plug-In . SVG Version: 6.00 Build 0)  -->
<svg version="1.1" id="Layer_1" xmlns="http://www.w3.org/2000/svg" xmlns:xlink="http://www.w3.org/1999/xlink" x="0px" y="0px"
	 width="1000px" height="450px" viewBox="0 0 1000 450" style="enable-background:new 0 0 1000 450;" xml:space="preserve">
<style type="text/css">
	.st0{fill:#4D4D4F;}
	.st1{fill:#0088CE;}
	.st2{fill:#FF8300;}
</style>
<g>
	<path class="st0" d="M90.9,113.6h26.4v21.4h0.6c6.7-14.7,24.3-24.9,45.7-24.9c27,0,50.4,16.1,50.4,53v89.4h-26.4v-82.1
		c0-26.1-14.9-35.8-31.6-35.8c-22,0-38.7,14.1-38.7,46.3v71.5H90.9V113.6z"/>
	<path class="st0" d="M254.6,192.7c0,24.3,22.6,40.4,46.9,40.4c16.1,0,27.8-8.2,38.1-20.8l19.9,15.2c-14.7,19-34.9,28.4-61.5,28.4
		c-44,0-71.5-31.6-71.5-73c0-41.6,30.2-73,71.8-73c48.9,0,67.7,37.5,67.7,73.3v9.4H254.6z M337.8,171.6
		c-0.6-23.1-13.5-40.4-40.1-40.4c-26.1,0-43.1,22-43.1,40.4H337.8z"/>
	<path class="st0" d="M416.5,178.3l-49.2-64.8h34l33.7,49.2l33.1-49.2h31.9l-47.5,64.8l56.3,74.1h-34l-41-58.3l-41,58.3h-32.5
		L416.5,178.3z"/>
	<path class="st0" d="M515.9,113.6h24.6v21.7h0.6c2.6-8.2,19.6-25.2,44.5-25.2c20.5,0,34.6,8.8,43.4,25.8c9.1-17,27.3-25.8,44-25.8
		c42.8,0,52.7,30.5,52.7,61.5v80.9h-26.4v-77.4c0-21.1-4.4-40.4-29.9-40.4c-25.5,0-35.5,17.3-35.5,41.9v75.9h-26.4v-72.7
		c0-26.4-3.8-45.1-29.3-45.1c-19,0-36,14.4-36,45.7v72.1h-26.4V113.6z"/>
	<circle class="st1" cx="818" cy="181.4" r="16.9"/>
	<g>
		<path class="st0" d="M817.4,134.7c23.8,0,43.5,17.1,47.6,39.7h-9.3l22.6,22.3l22.7-22.3h-11.3c-4.3-36.1-35-64.1-72.3-64.1
			c-30.2,0-56.1,18.4-67.2,44.6l22.7,8.9C780.4,146.7,797.5,134.7,817.4,134.7z"/>
		<path class="st0" d="M817.4,231.6c-23.3,0-42.7-16.5-47.4-38.4h10.3l-22.6-22.3L735,193.2h10.3c4.9,35.5,35.3,62.8,72.1,62.8
			c30.1,0,56-18.3,67.1-44.4l-22.7-8.9C854.2,219.7,837.2,231.6,817.4,231.6z"/>
	</g>
	<g>
		<g>
			<g>
				<g>
					<path class="st0" d="M935.3,127.6c0,9.2-7.5,17.1-16.9,17.1s-16.9-7.7-16.9-17.1c0-9.2,7.5-17.1,17-17.1
						C927.9,110.5,935.3,118.3,935.3,127.6z M932,127.6c0-7.6-5.9-13.8-13.6-13.8c-7.8,0-13.8,6.3-13.8,13.9c0,7.5,6,13.8,13.7,13.8
						C926,141.5,932,135.1,932,127.6z M921,129.5l4.8,7h-3.4l-4.5-6.7h-2.6v6.7h-2.8v-18.1h6.5c4.2,0,6,2.5,6,5.7
						C925,127.1,923.5,128.9,921,129.5z M915.3,127.2h3c2.7,0,3.7-1.4,3.7-3.1c0-1.8-1.3-3.1-3.5-3.1h-3.2V127.2z"/>
				</g>
			</g>
		</g>
	</g>
	<g>
		<path class="st0" d="M162.9,304.3h-16.6v-3.7h37.4v3.7H167V335h-4.2V304.3z"/>
		<path class="st0" d="M188.2,300.6h3.8v13.3c2.6-2.3,6-4.4,10.4-4.4c3.1,0,10.2,0.7,10.2,9.2V335h-3.8v-15.6
			c0.1-5.9-4.2-6.7-6.9-6.7c-4.2,0-7.7,2.6-10,5V335h-3.8V300.6z"/>
		<path class="st0" d="M244.3,329.8c-2.6,2.7-5,5.9-13.5,5.9c-8.3,0-14-5.7-14-13.3c0-7.9,5.9-13,13.6-13c7.9,0,14.8,4.1,14.6,13.9
			h-24.4c0.4,4.6,4.1,9.1,10.6,9.1c6.4,0,8.5-2.9,10.1-4.8L244.3,329.8z M240.8,320.1c-0.8-4.1-4.3-7.4-10.1-7.4
			c-5.6,0-8.8,2.8-9.9,7.4H240.8z"/>
		<path class="st2" d="M262.9,300.6h7.2L283,328l13.2-27.5h7.2L286.5,335h-7L262.9,300.6z"/>
		<path class="st2" d="M299.6,322.3c0-6.8,4.1-13.6,14.3-13.6c10.1,0,14.3,6.7,14.3,13.6c0,10.1-7.3,13.6-14.3,13.6
			C306.9,335.9,299.6,332.4,299.6,322.3z M322.1,322.2c0-6-3.8-8.4-8.3-8.4c-4.5,0-8.3,2.5-8.3,8.4c0,5.4,3,8.7,8.3,8.7
			C319.1,330.8,322.1,327.6,322.1,322.2z"/>
		<path class="st2" d="M330.9,309.6h5.8v3.2c1.8-1.8,4.4-4,9.5-4c5.3,0,10,2.2,10,10V335h-5.9v-14.1c0-5-1.5-7.2-5.4-7.2
			c-4.7,0-6.6,1.9-8.1,3.7V335h-5.9V309.6z"/>
		<path class="st2" d="M386.7,330.9c0,1.7,0.1,3.4,0.5,4.1h-6c-0.2-0.9-0.3-1.7-0.3-2.6c-2.5,1.4-6.1,3.4-11.1,3.4
			c-3.4,0-9.9-1.4-9.9-7.7c0-8.6,12.8-9.8,21-10.3v-1.1c0-1.9-1.8-3.3-6.6-3.3c-5.4,0-6.5,2-6.9,3.4h-6.1c1.4-6.9,8.2-8.1,12.9-8.1
			c12.3,0,12.5,6,12.5,9.5V330.9z M380.8,322.2c-3.4,0.1-6.4,0.6-9.1,1.3c-3.6,0.9-5.4,2.1-5.4,4.3c0,2.2,1.4,3.6,4.3,3.6
			c4.5,0,8-1.9,10.3-3.3V322.2z"/>
		<path class="st2" d="M420.6,313.7c-0.5-0.1-1.5-0.5-2.1-0.4c-0.7,0-1.5,0.3-1.9,0.5c0.4,0.5,1.2,2,1.2,4.2c0,6.9-6.2,9.4-12.9,9.4
			c-2.4,0-4.2-0.4-5.4-0.8c-0.7,0.4-1.6,1.1-1.6,2s0.6,1.5,5.7,1.5h8c5.7,0.2,9.1,1.8,9.1,5.8c0,6.1-8.9,7.8-16.5,7.8
			c-7.1,0-13.3-1.4-13.3-5.6c0-3,2.7-3.5,5.1-3.9v-0.1c-2.2-0.2-3.8-1.4-3.8-3.9c0-2.6,2.4-4.5,4.5-4.8v-0.1
			c-2.8-1.6-4.2-4.1-4.2-7.3c0-7.5,6.9-9.2,13.1-9.2c4.5,0,7.1,1.1,8.8,2.3c0.9-0.9,2.8-2.7,5.4-2.7h0.9V313.7z M400.6,335.3
			c-1.4,0-3.4,0.4-3.4,1.8c0,2.1,2.7,2.3,7.4,2.3c4.6,0,9.5-0.5,9.5-2.6c0-1.8-1-1.7-7.5-1.6H400.6z M412,318c0-3.8-3.9-4.9-7-4.9
			c-3.2,0-6.8,1.1-6.8,5c0,4,3.6,5,6.8,5C408,323,412,321.7,412,318z"/>
		<path class="st2" d="M451,327.4c-0.4,2.1-3.8,8.5-13.3,8.5c-9.1,0-14.5-5.7-14.5-13.6c0-7.2,4.7-13.5,14.1-13.5
			c9.6,0.1,14.2,6,14.2,15.2h-22.3c0.2,1.6,1.1,6.9,8.4,7.2c3.7,0,6.2-1.8,7-3.7H451z M445.2,319.4c-0.9-4.3-3.8-5.9-8.1-5.9
			c-3.1,0-6.6,1-7.8,5.9H445.2z"/>
		<path class="st2" d="M458.6,304.7c3.9,0,7,3.1,7,7s-3.1,7-7,7c-3.9,0-7-3.1-7-7S454.7,304.7,458.6,304.7z M458.6,317.6
			c3.3,0,5.9-2.6,5.9-5.9c0-3.3-2.7-5.9-5.9-5.9c-3.3,0-5.9,2.7-5.9,5.9C452.7,315,455.3,317.6,458.6,317.6z M458.5,312.1H457v3.7
			h-1.1v-8.4h3.3c1.9,0,2.7,0.8,2.7,2.3c0,1.5-1,2.1-2.1,2.3l2.5,3.7H461L458.5,312.1z M457,311.1h1.8c1.1,0,2-0.1,2-1.3
			c0-1.2-1-1.3-2-1.3H457V311.1z"/>
		<path class="st0" d="M495.9,300.6h5.1l17.7,34.4H514l-4.5-8.9h-22.2l-4.5,8.9h-4.6L495.9,300.6z M507.7,322.4l-9.2-18.5l-9.2,18.5
			H507.7z"/>
		<path class="st0" d="M524,300.6h20.2c7,0,13.3,2,13.3,9.8c0,7.9-6.3,9.9-13.3,9.9h-16V335H524V300.6z M528.1,316.6h14.9
			c6.9,0,10.4-1.5,10.4-6.2c0-4.7-3.5-6.2-10.4-6.2h-14.9V316.6z"/>
		<path class="st0" d="M563.4,300.6h4.2V335h-4.2V300.6z"/>
		<path class="st0" d="M593.6,300.6h20.2c7,0,13.3,2,13.3,9.8c0,7.9-6.3,9.9-13.3,9.9h-16V335h-4.2V300.6z M597.8,316.6h14.9
			c6.9,0,10.4-1.5,10.4-6.2c0-4.7-3.5-6.2-10.4-6.2h-14.9V316.6z"/>
		<path class="st0" d="M631.9,300.6h3.8V335h-3.8V300.6z"/>
		<path class="st0" d="M666.9,331.2c0,1.5,0.2,2.5,0.4,3.8h-3.8c-0.2-0.8-0.5-2-0.5-3c-3.6,2.3-7.6,3.7-12.4,3.7
			c-4.1,0-10.1-1.1-10.1-7.5c0-8.6,12.8-8.9,22.5-10v-0.9c0-3.4-4-4.6-8-4.6c-6.6,0-8.9,2.7-10.1,4.2l-2.9-2
			c1.4-1.8,4.1-5.3,12.7-5.3c5.6,0,12.1,1.7,12.1,8V331.2z M663.1,321.3c-11.3,1.1-18.8,2.1-18.8,6.9c0,3.9,4.4,4.4,6.3,4.4
			c5.3,0,10.1-2.6,12.6-3.9V321.3z"/>
		<path class="st0" d="M690.1,313.5h-9.8v15c0,2.7,1.2,4,5.1,4c1.8,0,3.4-0.3,5.4-0.8v3.3c-2.7,0.4-4.7,0.7-6.2,0.7
			c-8.1,0-8.1-4.9-8.1-6.9v-15.3h-5.3v-3.3h5.3V302h3.8v8.2h9.8V313.5z"/>
		<path class="st0" d="M699.9,314h-6.2v-3.3h6.2v-1.9c0-4.1,1.3-9.1,8.8-9.1c3.9,0,5.4,0.4,6.4,0.7v3.4c-1.7-0.4-3.4-0.8-5.3-0.8
			c-5.3,0-6.1,2.5-6.1,6.2v1.6H714v3.3h-10.2v21h-3.8V314z"/>
		<path class="st0" d="M715.9,322.2c0-7.1,5.6-12.7,14.3-12.7c8.7,0,14.3,5.6,14.3,12.7c0,8.8-5.8,13.6-14.3,13.6
			C721.8,335.8,715.9,330.9,715.9,322.2z M740.6,322.6c0-4.5-2.9-9.9-10.4-9.9c-7.5,0-10.5,5.4-10.5,9.9c0,5.9,4,9.8,10.5,9.8
			C736.7,332.5,740.6,328.6,740.6,322.6z"/>
		<path class="st0" d="M749.5,310.2h3.8v5.2c2.2-2.5,5.4-5.9,10.3-5.9c0.9,0,1.6,0,2.3,0.2v3.8c-0.5,0-1.4-0.3-3.1-0.3
			c-5.4,0-9.4,6.3-9.5,7V335h-3.8V310.2z"/>
		<path class="st0" d="M770.3,310.2h3.7v3.5c2.8-2.4,5.8-4.2,9.8-4.2c5.4,0,6.9,2.6,7.9,4.4c3.9-3.3,6.4-4.4,10.1-4.4
			c2.3,0,9.1,0.5,9.1,7.6V335h-3.8v-16.5c0-1.5,0-5.8-5.4-5.8c-4.3,0-7.5,2.8-9.1,4.4V335h-3.8v-16.5c0-1.5,0-5.8-5.3-5.8
			c-4.4,0-7.6,2.8-9.2,4.4V335h-3.8V310.2z"/>
	</g>
</g>
</svg>
